<svg xmlns="http://www.w3.org/2000/svg" viewBox="0 0 640 480" role="img">
  <defs>
    <linearGradient id="bg" x1="0" y1="0" x2="1" y2="1">
      <stop offset="0" stop-color="#F7F1FF"/>
      <stop offset="1" stop-color="#E7D4FF"/>
    </linearGradient>
  </defs>
  <rect width="640" height="480" fill="url(#bg)"/>
  <circle cx="520" cy="70" r="54" fill="#F5C97A" opacity="0.85"/>
  <circle cx="88" cy="400" r="70" fill="#B26BFF" opacity="0.35"/>

  <rect x="150" y="90" width="340" height="250" rx="28" fill="#4B0FB8"/>
  <rect x="172" y="112" width="200" height="206" rx="16" fill="#F4F5F8"/>
  <rect x="190" y="138" width="120" height="12" rx="6" fill="#6B21F0"/>
  <rect x="190" y="164" width="150" height="10" rx="5" fill="#C4B5FD"/>
  <rect x="190" y="186" width="90" height="10" rx="5" fill="#C4B5FD"/>
  <rect x="386" y="112" width="82" height="206" rx="16" fill="#6B21F0"/>
  <circle cx="427" cy="160" r="16" fill="#F5C97A"/>
  <rect x="404" y="196" width="46" height="8" rx="4" fill="#F4F5F8"/>
  <rect x="404" y="214" width="46" height="8" rx="4" fill="#F4F5F8" opacity="0.7"/>
  <rect x="250" y="340" width="140" height="14" rx="7" fill="#F5C97A"/>

</svg>
